<svg width="28" height="28" viewBox="0 0 28 28" fill="none" xmlns="http://www.w3.org/2000/svg">
<path d="M14.3725 6.78491L15.9883 9.91413L19.4428 10.4161L16.9077 12.7003L17.7527 16.0805L14.3725 14.1791L10.9923 16.0805L11.8374 12.7003L9.30225 10.4161L12.8515 9.91413L14.3725 6.78491Z" fill="#FF343F" fill-opacity="0.5"/>
<path d="M15.8402 25.3759L14.3732 24.5309L17.7534 18.6155H22.8237C23.0457 18.6159 23.2656 18.5724 23.4708 18.4876C23.676 18.4028 23.8625 18.2783 24.0195 18.1213C24.1765 17.9643 24.301 17.7778 24.3858 17.5726C24.4706 17.3674 24.5141 17.1475 24.5138 16.9254V6.78486C24.5141 6.56282 24.4706 6.34289 24.3858 6.13769C24.301 5.93249 24.1765 5.74604 24.0195 5.58903C23.8625 5.43203 23.676 5.30755 23.4708 5.22273C23.2656 5.13791 23.0457 5.09443 22.8237 5.09476H5.92268C5.70064 5.09443 5.48071 5.13791 5.27551 5.22273C5.07031 5.30755 4.88386 5.43203 4.72685 5.58903C4.56985 5.74604 4.44537 5.93249 4.36055 6.13769C4.27573 6.34289 4.23224 6.56282 4.23258 6.78486V16.9254C4.23224 17.1475 4.27573 17.3674 4.36055 17.5726C4.44537 17.7778 4.56985 17.9643 4.72685 18.1213C4.88386 18.2783 5.07031 18.4028 5.27551 18.4876C5.48071 18.5724 5.70064 18.6159 5.92268 18.6155H13.5281V20.3056H5.92268C5.02619 20.3056 4.16643 19.9495 3.53252 19.3156C2.89861 18.6817 2.54248 17.8219 2.54248 16.9254V6.78486C2.54248 5.88838 2.89861 5.02861 3.53252 4.3947C4.16643 3.76079 5.02619 3.40466 5.92268 3.40466H22.8237C23.7201 3.40466 24.5799 3.76079 25.2138 4.3947C25.8477 5.02861 26.2038 5.88838 26.2038 6.78486V16.9254C26.2038 17.8219 25.8477 18.6817 25.2138 19.3156C24.5799 19.9495 23.7201 20.3056 22.8237 20.3056H18.7378L15.8402 25.3759Z" fill="#FF343F" fill-opacity="0.5"/>
</svg>
