<svg width="34" height="33" viewBox="0 0 34 33" fill="none" xmlns="http://www.w3.org/2000/svg">
<path d="M3.58545 10.912C3.58545 10.5534 3.7279 10.2095 3.98146 9.95595C4.23503 9.70239 4.57893 9.55994 4.93753 9.55994H29.2749C29.6335 9.55994 29.9774 9.70239 30.231 9.95595C30.4846 10.2095 30.627 10.5534 30.627 10.912C30.627 11.2706 30.4846 11.6145 30.231 11.8681C29.9774 12.1216 29.6335 12.2641 29.2749 12.2641H4.93753C4.57893 12.2641 4.23503 12.1216 3.98146 11.8681C3.7279 11.6145 3.58545 11.2706 3.58545 10.912ZM3.58545 16.3203C3.58545 15.9617 3.7279 15.6178 3.98146 15.3643C4.23503 15.1107 4.57893 14.9682 4.93753 14.9682H29.2749C29.6335 14.9682 29.9774 15.1107 30.231 15.3643C30.4846 15.6178 30.627 15.9617 30.627 16.3203C30.627 16.6789 30.4846 17.0228 30.231 17.2764C29.9774 17.53 29.6335 17.6724 29.2749 17.6724H4.93753C4.57893 17.6724 4.23503 17.53 3.98146 17.2764C3.7279 17.0228 3.58545 16.6789 3.58545 16.3203ZM4.93753 20.3766C4.57893 20.3766 4.23503 20.519 3.98146 20.7726C3.7279 21.0261 3.58545 21.37 3.58545 21.7286C3.58545 22.0872 3.7279 22.4311 3.98146 22.6847C4.23503 22.9383 4.57893 23.0807 4.93753 23.0807H21.1625C21.5211 23.0807 21.865 22.9383 22.1185 22.6847C22.3721 22.4311 22.5145 22.0872 22.5145 21.7286C22.5145 21.37 22.3721 21.0261 22.1185 20.7726C21.865 20.519 21.5211 20.3766 21.1625 20.3766H4.93753Z" fill="#FF343F"/>
</svg>
