<svg width="352" height="351" viewBox="0 0 352 351" fill="none" xmlns="http://www.w3.org/2000/svg">
<path d="M132.905 272.011C124.588 285.526 108.115 305.838 80.6064 312.315L86.9238 291.523C86.9238 291.523 62.5336 307.756 39.1035 312.315C43.6618 288.804 59.8954 264.494 59.8954 264.494L39.1035 270.812C45.5804 243.303 65.8923 226.83 79.4068 218.513L136.991 206.422L132.905 272.011Z" fill="#F2C94C"/>
<path d="M223.882 327.309C193.836 357.355 145.729 358.307 114.545 330.177C126.855 328.873 140.125 319.081 141.982 301.85C142.756 294.694 141.552 286.248 137.491 276.593L74.8233 213.926C65.1686 209.865 56.7232 208.661 49.5663 209.435C32.3358 211.291 22.5441 224.561 21.2397 236.871C-6.88974 205.687 -5.93934 157.581 24.1074 127.534C41.8748 109.766 65.9725 102.176 89.1465 104.765C99.7722 105.954 110.201 109.271 119.739 114.743L236.673 231.676C242.145 241.215 245.468 251.648 246.65 262.269C249.241 285.443 241.649 309.542 223.882 327.309Z" fill="#EB5757"/>
<path d="M246.649 262.27C215.526 283.057 179.931 296.165 141.98 301.85C142.754 294.693 141.55 286.247 137.489 276.593L74.8215 213.925C65.1667 209.864 56.7213 208.661 49.5645 209.434C55.2491 171.483 68.3583 135.888 89.144 104.765C99.7696 105.954 110.198 109.271 119.736 114.743L236.67 231.676C242.143 241.216 245.466 251.649 246.649 262.27Z" fill="#C40606"/>
<path d="M137.489 276.595C186.266 265.392 232.59 240.799 270.59 202.8C326.399 146.991 353.301 73.2269 351.315 0.10238C278.19 -1.88403 204.426 25.0177 148.617 80.8267C110.617 118.827 86.0252 165.15 74.8223 213.928L137.489 276.595Z" fill="#E3E8EC"/>
<path d="M180.315 112.524C142.318 150.521 112.075 191.203 91.1111 230.211L74.8262 213.926C86.0229 165.152 110.623 118.826 148.62 80.8288C204.428 25.0191 278.192 -1.88123 351.317 0.10655C297.708 17.6357 236.124 56.7153 180.315 112.524Z" fill="#D5D8DB"/>
<path d="M335.005 101.574C318.664 91.7578 302.46 79.1642 287.358 64.0631C280.065 56.7707 273.363 49.2291 267.274 41.5423C260.745 33.2933 254.914 24.8732 249.826 16.4168C282.361 4.65788 316.667 -0.778889 350.835 0.0914048C350.997 0.101676 351.159 0.101676 351.316 0.106469L351.311 0.111262C352.241 34.4314 346.814 68.8877 335.005 101.574Z" fill="#EB5757"/>
<path d="M340.597 235.527C340.592 235.522 340.597 235.516 340.592 235.511L340.597 235.527Z" fill="#EB5757"/>
<path d="M351.314 0.106469L351.31 0.111262C324.702 8.80529 296.128 22.8142 267.275 41.5423C260.745 33.2933 254.914 24.8732 249.826 16.4168C282.36 4.65788 316.666 -0.778889 350.834 0.0914048C350.996 0.101676 351.158 0.101676 351.314 0.106469Z" fill="#C40606"/>
<path d="M228.748 174.202C257.209 174.202 280.281 151.13 280.281 122.669C280.281 94.2084 257.209 71.1364 228.748 71.1364C200.287 71.1364 177.215 94.2084 177.215 122.669C177.215 151.13 200.287 174.202 228.748 174.202Z" fill="#EB5757"/>
<path d="M228.75 157.372C247.916 157.372 263.453 141.835 263.453 122.669C263.453 103.504 247.916 87.9666 228.75 87.9666C209.584 87.9666 194.047 103.504 194.047 122.669C194.047 141.835 209.584 157.372 228.75 157.372Z" fill="#A0D9F2"/>
</svg>
