<svg width="20" height="20" viewBox="0 0 20 20" fill="none" xmlns="http://www.w3.org/2000/svg">
<path d="M7.12712 14.0142L5.94289 12.8294L5.10742 13.6642L7.12712 15.6839L10.6798 12.1313L9.84492 11.2964L7.12712 14.0142Z" fill="#F6F6F6"/>
<path d="M17.192 18.0523H14.8235V16.8681H17.192V9.76273H14.8235V5.02583C14.8227 4.39791 14.573 3.79594 14.129 3.35194C13.685 2.90794 13.083 2.65816 12.4551 2.65737V1.47314C13.397 1.47424 14.3 1.84889 14.966 2.51491C15.632 3.18093 16.0067 4.08393 16.0078 5.02583V8.57851H17.192C17.506 8.57882 17.807 8.70369 18.029 8.92571C18.251 9.14772 18.3759 9.44875 18.3762 9.76273V16.8681C18.3759 17.1821 18.251 17.4831 18.029 17.7051C17.807 17.9271 17.506 18.052 17.192 18.0523Z" fill="#F6F6F6"/>
<path d="M12.4549 8.57851H11.2707V5.02583C11.2707 4.0836 10.8964 3.17996 10.2301 2.5137C9.56388 1.84744 8.66024 1.47314 7.71801 1.47314C6.77578 1.47314 5.87214 1.84744 5.20589 2.5137C4.53963 3.17996 4.16533 4.0836 4.16533 5.02583V8.57851H2.9811C2.66703 8.57851 2.36581 8.70327 2.14373 8.92536C1.92164 9.14745 1.79688 9.44866 1.79688 9.76273V16.8681C1.79688 17.1822 1.92164 17.4834 2.14373 17.7055C2.36581 17.9276 2.66703 18.0523 2.9811 18.0523H12.4549C12.769 18.0523 13.0702 17.9276 13.2923 17.7055C13.5144 17.4834 13.6391 17.1822 13.6391 16.8681V9.76273C13.6391 9.44866 13.5144 9.14745 13.2923 8.92536C13.0702 8.70327 12.769 8.57851 12.4549 8.57851ZM5.34956 5.02583C5.34956 4.39767 5.59909 3.79525 6.04326 3.35108C6.48743 2.9069 7.08986 2.65737 7.71801 2.65737C8.34616 2.65737 8.94859 2.9069 9.39276 3.35108C9.83693 3.79525 10.0865 4.39767 10.0865 5.02583V8.57851H5.34956V5.02583ZM12.4549 16.8681H2.9811V9.76273H12.4549V16.8681Z" fill="#F6F6F6"/>
</svg>
